<svg xmlns="http://www.w3.org/2000/svg" width="22" height="22" viewBox="0 0 22 22">
  <path fill="#ffffff" d="M3.5 7.5c.8 0 1.5.7 1.5 1.5 0 .2 0 .4-.1.6l2.6 2.1 2.4-5.2c-.5-.3-.8-.8-.8-1.4 0-1 .8-1.8 1.8-1.8s1.8.8 1.8 1.8c0 .6-.3 1.1-.8 1.4l2.4 5.2 2.6-2.1c-.1-.2-.1-.4-.1-.6 0-.8.7-1.5 1.5-1.5S20 8.2 20 9s-.7 1.5-1.5 1.5c-.3 0-.6-.1-.8-.2l-3.1 2.6c-.3.2-.7.3-1 .2-.3-.1-.6-.3-.7-.6L11 8.8l-2 3.7c-.2.3-.4.5-.7.6-.3.1-.7 0-1-.2l-3.1-2.6c-.2.1-.5.2-.8.2C2.7 10.5 2 9.8 2 9s.7-1.5 1.5-1.5ZM5 14h12c.6 0 1 .4 1 1v2.5c0 .6-.4 1-1 1H5c-.6 0-1-.4-1-1V15c0-.6.4-1 1-1Z"/>
</svg>
