<svg xmlns="http://www.w3.org/2000/svg" width="22" height="22" viewBox="0 0 22 22">
  <path fill="#ffffff" d="M9.5 2h3l.4 2.2c.4.1.8.3 1.2.5l1.9-1.1 2.1 2.1-1.1 1.9c.2.4.4.8.5 1.2L20 9.2v3l-2.2.4c-.1.4-.3.8-.5 1.2l1.1 1.9-2.1 2.1-1.9-1.1c-.4.2-.8.4-1.2.5L12.5 20h-3l-.4-2.2c-.4-.1-.8-.3-1.2-.5l-1.9 1.1-2.1-2.1 1.1-1.9c-.2-.4-.4-.8-.5-1.2L2 12.2v-3l2.2-.4c.1-.4.3-.8.5-1.2L3.6 5.7 5.7 3.6l1.9 1.1c.4-.2.8-.4 1.2-.5L9.5 2Zm1.5 6.2c-1.6 0-2.8 1.3-2.8 2.8S9.4 13.8 11 13.8s2.8-1.3 2.8-2.8S12.6 8.2 11 8.2Z"/>
</svg>
