<?xml version="1.0" encoding="UTF-8"?>
<svg id="Layer_1" data-name="Layer 1" xmlns="http://www.w3.org/2000/svg" viewBox="0 0 128 128">
  <rect width="128" height="128" rx="16" ry="16" fill="#2b2f3a"/>
  <g>
    <path d="M115.89299745,22.24207414c-.52896288-.86193961-2.31562363-.39005613-3.10144963-.57462641-2.84076574-.66976261-6.19146016-1.13402777-9.25674595-1.79998121-13.98883156-3.03674029-27.17851667-9.673443-39.43967146-16.82388356-.03234306.01903421-.06278153.03615222-.09513621.05518643-.03234306-.01903421-.06278153-.03615222-.09513621-.05518643-12.2611548,7.15044055-25.4508399,13.78714327-39.43965985,16.82388356-3.06529741.66595345-6.41599183,1.1302186-9.25675757,1.79998121-.785826.18457028-2.57248675-.2873132-3.10143802.57462641l-.19027241,8.55274731c.09323162,11.32500616.66785803,26.63432874,3.20418094,40.49376484h-.10274292c1.55452237,8.57557907,3.86252767,16.59937512,7.29504945,22.74326717,8.58699495,15.37400869,26.39648822,23.25319584,41.66204025,30.41884983.00380916.00190458.00952291.00380916.01332046.00571375.00380916-.00190458.00761833-.00380916.01141588-.00571375,15.26365906-7.16565399,33.07505691-15.04484114,41.66205186-30.41884983,3.43251016-6.14389205,5.66441347-14.1676881,7.21703125-22.74326717,2.53633452-13.8594361,3.11094932-29.16875868,3.20419255-40.49376484l-.19027241-8.55274731ZM110.18292046,31.07261174c-.32917917,13.40469386-.85813044,26.84363536-3.28410372,40.05615222-.0095113.05327024-.01903421.10655209-.03045009.15982232h-.03615222c-.09132704.54228335-.18455867,1.06743707-.27779029,1.57165199-.93233947,5.02129178-2.02640585,8.87811732-2.26234178,14.09728823-.14270431,3.09953344.83148952,7.14472681-1.91033085,9.30621864-2.50778902,1.97693316-4.74539446.38435399-6.44263275,1.16066869-.76108965.34819016-2.46592305,2.37269142-3.23272645,3.04054945-8.52801097,7.43394459-18.32704027,12.77298805-28.64170038,17.34713269-.02283176-.0095113-.04377055-.02092718-.06469773-.03043848-.00379755-.00190458-.00760672-.00380916-.01141588-.00571375-.00379755.00190458-.0095113.00380916-.01332046.00571375-.02092718.0095113-.04185436.02092718-.06468612.03043848-10.31467172-4.57414464-20.11370102-9.9131881-28.64171199-17.34713269-.76679179-.66785803-2.47163679-2.6923593-3.23272645-3.04054945-1.69722668-.7763147-3.93483212.81626447-6.44262114-1.16066869-2.74183198-2.16149183-1.76953112-6.2066852-1.91034246-9.30621864-.23593593-5.21917091-1.33000231-9.07599645-2.26233017-14.09728823-.09323162-.50421493-.18647486-1.02936865-.2778019-1.57165199h-.01141588c-.01141588-.05327024-.02092718-.10655209-.03043848-.15982232-2.42597327-13.21251686-2.95493616-26.65145836-3.28410372-40.05615222-.01712963-.70210567-.5365696-3.6494235-.02092718-3.99572069,16.48900225-2.10631701,31.84969048-8.92948298,46.20384183-16.92473351,14.35415135,7.99525053,29.71485119,14.8184165,46.20385344,16.92473351.51564242.34629719-.00380916,3.29361501-.02092718,3.99572069Z" fill="#ad8a4e"/>
    <path d="M101.08218766,53.34779298v37.92130132c0,.26256525-.03615222.51943997-.10275454.76108965-.33297672,1.2063206-1.43845898,2.09109197-2.75133167,2.09109197h-26.82841032v.00369816c-.37222656,0-.7368103.11859008-1.0288571.34465312-.96015323.74301445-1.55953248,1.99930476-2.74110628,2.37544317-.70054183.22235357-2.21998443.30944704-3.63825281.32056416h-.02481588c-1.41826837-.01111711-2.93769932-.09821059-3.63825281-.32056416-1.1815738-.37613841-1.7809414-1.63242872-2.74109463-2.37544317-.2920468-.22606304-.65664219-.34465312-1.02886875-.34465312v-.00369816h-26.89607378c-1.281759,0-2.36103295-.88536219-2.6861156-2.09248832-.065012-.24181105-.10030714-.4988573-.10030714-.76159788v-37.82857703c0-1.09098525.86193616-1.97444158,1.92634601-1.97444158.40681817,0,.73746778.33891664.73746778.75779779v39.04522081h28.20407615s.50422654-.05328185.72684201.07230445c.34248802.19027241.66595345.41669705.97039628.66595345.71352155.58793525,1.19871388,1.5412019,1.70864256,1.99786034.18836783.16933362.17695195.1712382.45475386.20168829.56891266.06088857,1.48031334.08372033,2.37078684.10655209h.02473634c.8904735-.02283176,1.8018858-.04566352,2.37079845-.10655209.2778019-.03045009.26637441-.03235467.45475386-.20168829.50992867-.45665844.99512101-1.40992509,1.70864256-1.99786034.30443122-.2492564.62789664-.47568103.97038466-.66595345.22262709-.1255863.47378807-.18836783.72684201-.07230445h28.18695814v-39.13522863c-.02473634-.41860163.31395413-.7572921.73065118-.7572921,1.09025721,0,1.93316261,1.973124,1.93316261,1.973124ZM62.83743253,52.64379434v39.48152582c-1.52789306-.65834673-2.79129306-1.74099723-4.30777023-2.44691206-1.99024201-.92662573-4.88809877-1.83421724-6.86122277-2.30419614-.93043489-.22071089-2.62575698-.38815154-2.62575698-.38815154-5.13735517.05327024-10.27661492-.06660231-15.41397008-.00190458-.32156084.00380916-1.56784283-.58604229-1.6192201-1.03889156-.42811293-3.65323266.01522504-8.99037154.00380916-12.84718547v-25.11786317c.26448144-.54798548.82578738-.79153974,1.41943639-.76870798,10.05208325.29872908,21.21156495-1.73908103,29.40469461,5.4322867ZM60.29158671,68.67994732l-11.69603969-11.67320793c-.24736343-.16173852-.56892427-.14460889-.81818067,0-.29301534.16744065-1.12260027,1.14733661-1.45367241,1.46509991-2.99299296,2.87120422-6.38744632,6.09441937-9.1768464,9.15019387-.44143339.48519233-1.24628199,1.1302186-.90379396,1.76382899h2.62005485v8.75253102h6.65953448v-6.50541428c0-.39767445.73635331-.62980122,1.07504378-.66025131.71541452-.06468612,2.61053194-.09132704,3.28599669.00952291.22642464.03424764.7763147.3158471.7763147.54987845v6.45404863l.15412019.15221561h6.6956867v-8.75253102c.68117849-.09894537,1.74099723.13508598,2.36889387,0,.24544723-.05328185.53847418-.44714714.41288789-.70591484ZM95.94864166,85.94526427c-.05328185.45284927-1.29765925,1.04270072-1.6192201,1.03889156-5.13735517-.06469773-10.27661492.05517482-15.41397008.00190458,0,0-1.6953221.16744065-2.62575698.38815154-1.973124.4699789-4.87098076,1.37757042-6.86122277,2.30419614-1.51647718.70591484-2.77987718,1.78856533-4.30777023,2.44691206v-39.48152582c8.19312966-7.17136773,19.35261137-5.13355762,29.40469461-5.4322867.593649-.02283176,1.15495494.2207225,1.41943639.76870798v25.11786317c-.01141588,3.85681393.4319221,9.1939528.00380916,12.84718547ZM73.45272631,61.5846932h14.36176967c-.15792936-.67357178-.62028993-1.3604524-1.05602119-1.90272414-1.52788144-1.89511742-3.75977314-3.00250426-6.12485784-2.9796725-2.36509632-.02283176-4.5988926,1.08455508-6.12486946,2.9796725-.43573126.54227173-.89809183,1.22915236-1.05602119,1.90272414ZM72.00666061,64.81932423h17.25390107c.17504737-.20549746-.37673566-2.14818298-.65644215-2.28326896l-.2492564.19027241-.00190458-.19027241h-.33677428l-14.99727303.19027241s-.07420903-.06088857-.10655209-.04186597v-.14840644h-.24735182c-.28351565.13508598-.8333941,2.0777715-.65834673,2.28326896ZM87.00202906,73.1551582v2.89023843h.76108965v-9.89416551h-14.08015861v9.89416551h.57081724v-2.89023843c.03805681-.7763147.13889515-1.54310649.42811293-2.29088729.80675318-2.09109197,3.08241542-3.71982336,5.325723-3.94053425.07420903-.00571375.14651347-.01332046.2207225-.01903421.00570213-.00189297.01330885-.00189297.0190226-.00189297.04375894-.00190458.08942246-.00380916.13319301-.00571375.03994977-.00190458.08181574-.00380916.1236701-.00380916.08372033-.00189297.16553607-.00189297.24736343,0,.04185436,0,.08372033.00190458.1236701.00380916.04377055.00190458.08943407.00380916.13319301.00571375.00571375,0,.01332046,0,.0190226.00189297.07420903.00571375.14651347.01332046.2207225.01903421,2.24330758.22071089,4.51896982,1.84944229,5.325723,3.94053425.28921778.74778081.39005613,1.51457259.42811293,2.29088729ZM77.10786355,74.71348973h-2.28326896v1.31287269c0,.32537001-.28350404.58985145-.63170581.58985145h-1.61160177c-.44333798,0-.80105104.32346543-.80105104.72493743v.56510349c0,.12749088.11606339.23213838.25686311.23213838h4.70734927c.20168829,0,.3634152-.14651347.3634152-.32727459v-3.09762885ZM77.4674812,71.84989223c.0095113-.03615222-.0095113-.07230445-.04566352-.09133866l-1.897022-.93232786c-.05137727-.02473634-.1141588.00189297-.12557468.05517482l-.62409909,2.59911606c-.01141588.05137727.03234306.10275454.08943407.10084995l2.13866007-.07039986c.03994977-.00190458.07230445-.02664093.08181574-.06469773l.38244941-1.59637672ZM79.10001015,69.8691499l-.9094961-1.83041969c-.02473634-.04947269-.09132704-.06279315-.13509759-.02854551l-2.165301,1.70674959c-.04375894.03615222-.04185436.10083834.00571375.13128843l1.74479478,1.17207296c.03234306.02093879.07611361.01903421.10655209-.00379755l1.32810934-1.05030744c.03043848-.02283176.03994977-.06469773.02472473-.09704079ZM81.51456754,69.76259782c.02664093-.0095113.0475681-.03043848.05518643-.0570794l.5365696-1.92936506c.01141588-.03996139-.01141588-.07991116-.0475681-.09704079-.01141588-.00379755-.02283176-.00570213-.03424764-.00570213h-2.78559092c-.01141588,0-.02092718.00190458-.03045009.00760672-.03804519.01522504-.05898398.05517482-.0475681.09513621l.5365696,1.92936506c.00761833.02664093.02854551.0475681.05518643.0570794.00760672.00190458.01521343.00380916.02283176.00380916h1.71054714c.0095113,0,.0190226-.00190458.02853389-.00380916ZM83.62850288,71.03171156l1.7428902-1.17016838c.0475681-.03235467.04947269-.09704079.00571375-.13128843l-2.165301-1.70674959c-.04377055-.03424764-.11036125-.02092718-.13509759.02854551l-.90760313,1.82851511c-.01711801.03424764-.00760672.07420903.02283176.09894537l1.33001393,1.04840286c.03043848.02473634.07419742.02662931.10655209.00379755ZM84.26400624,73.52428715l2.13866007.06849528c.05709101.00190458.10084995-.0475681.08943407-.09894537l-.62219451-2.59911606c-.01332046-.05328185-.076102-.07991116-.12557468-.05517482l-1.89892658.93232786c-.03615222.01712963-.05327024.05517482-.04566352.09132704l.38244941,1.59638834c.0095113.03615222.04186597.06279315.08181574.06469773ZM89.47557044,77.3411513c0-.40147201-.34629719-.72493743-.77250553-.72493743h-1.44987486c-.34820177,0-.63170581-.26448144-.63170581-.58985145v-1.31287269h-2.28326896v3.09762885c0,.18076112.15602477.32727459.35010635.32727459h4.539897c.13699056,0,.24735182-.1046475.24735182-.23213838v-.56510349Z" fill="#f2daae"/>
    <path d="M59.86532111,31.15194316l-19.4018968,7.46712545c-.10981579.03372215-.14477389-.01609421-.20608095-.09369367-.34771434-.44011968-.60881305-2.00895941-.95946458-2.57514742l18.75351384-7.33325457c-.20647679-.09360453-.49874135.00248493-.71127863.05465066-1.45752942.35773999-2.97315906.89275273-4.39546732,1.38048532-4.67584284,1.60342242-9.23467521,3.5847775-13.9027852,5.21523636-.10262585-.62193136-.8867508-1.88932774-.91327953-2.42007588-.00750868-.15022268.02889227-.19526926.17101914-.23846532l18.77323817-6.94914948,6.57990951,1.11487421-3.78742764,4.37741436ZM40.5816027,43.27743297c.13328456-.15293949.20423891-.33740958.14801395-.53982497l-5.37908305-14.01014309c-.21312687-.12227435-1.96805877.47426705-2.14937377.63027734-.25834305.22228814-.22523603.527361-.12318195.82068422l4.98834414,13.29919244c.1339482.88857331,2.29904148.04794117,2.51528067-.20018594ZM30.08078161,41.25819771c.51238739-.63664141.46113131-1.3102362.27121593-2.0418527-.29274713-1.12775823-1.06928407-2.81551644-2.52973745-2.14419275-1.29451138.59504546-1.07334365,2.59667268-.44683204,3.60490343.49406975.79509512,2.0221446,1.43002927,2.70535357.58114203ZM35.15693204,38.6893158l-1.13992046-2.81139231-3.5608783,1.31841163c.51636616.90712495.76729189,1.89192962,1.00008007,2.89745406l3.70071869-1.40447338ZM67.24458094,35.51722739s.00003296.00011798.00009819.00035188c.29637292,1.06274765.88254805,2.00511084,1.7038876,2.73551854l.30883189.2746406c2.73026555,2.1192572,6.67068161,2.61585633,10.26689791,1.35231263,1.33119696-.4677209,3.18687311-1.64976138,4.44523669-1.65627846,1.2069045-.00625058,1.96606842.88614637,3.04555187,1.20823974.24143236.28740627-.33105883,1.06759482.66931177,1.42847418.86265413.31119874,1.13711189-.5744706,1.67731648-.49759274,1.83613016.88846418,3.83168622,1.57493999,5.66048449,2.46848905,1.03181118.50414194,2.12616901,1.31751308,3.14892022,1.74173081,2.21666739.91943143,4.33740451-1.42264771,2.68814379-3.2038446-.49018794-.52940158-4.52251417-1.63569112-5.56222682-2.01483706-1.52130932-.55476699-2.99415928-1.21167573-4.51120088-1.77598478l-.10575541-.17556826c.29550293-.72107074-.31700138-1.50264231-1.11043137-1.2902296-.26449385.07080884-.31887267.27098757-.47951817.33672255-.23042799.09428947-2.81984399-1.2583412-3.48652258-1.38407808-1.84719535-.34838464-4.51256019,1.1526926-4.51256019,1.1526926-2.63476351,1.86576872-5.68192312,2.21162331-8.30872345.95124876-4.31595106-2.07085207-3.98412809-8.59429683.91957783-10.79177316,2.71049038-1.21464022,6.31214827.45111566,6.56831006,3.19567973.06557198.70255012-.22940991,2.04626953-.72716134,2.63986759-.70619222.84217604-2.47533436,1.73864188-3.48065344,1.33228566-1.73552779-.70151111-1.28551472-2.69555694.77496719-2.71216085.59957523-1.55661312-1.28501231-1.98085748-2.46998717-1.19685221-1.50872429.99820496-1.93952307,3.2172107-1.02550367,4.48162452,2.22299523,3.0751928,6.31084599,1.44190655,8.53139567-1.4564524,1.13026439-1.47527071,1.39750358-3.92225977.65119662-5.41519948-4.13220637-8.26621655-16.70124077-2.37071617-15.69804211,6.14117893.08382387.711225.25568509,1.44059231.41815834,2.12979394Z" fill="#b6833b"/>
  </g>
</svg>